<svg id="Crayon_icon" data-name="Crayon icon" xmlns="http://www.w3.org/2000/svg" width="101.937" height="133.749" viewBox="0 0 101.937 133.749">
  <metadata><?xpacket begin="﻿" id="W5M0MpCehiHzreSzNTczkc9d"?>
<x:xmpmeta xmlns:x="adobe:ns:meta/" x:xmptk="Adobe XMP Core 5.6-c142 79.160924, 2017/07/13-01:06:39        ">
   <rdf:RDF xmlns:rdf="http://www.w3.org/1999/02/22-rdf-syntax-ns#">
      <rdf:Description rdf:about=""/>
   </rdf:RDF>
</x:xmpmeta>
                                                                                                    
                                                                                                    
                                                                                                    
                                                                                                    
                                                                                                    
                                                                                                    
                                                                                                    
                                                                                                    
                                                                                                    
                                                                                                    
                                                                                                    
                                                                                                    
                                                                                                    
                                                                                                    
                                                                                                    
                                                                                                    
                                                                                                    
                                                                                                    
                                                                                                    
                                                                                                    
                           
<?xpacket end="w"?></metadata>
<defs>
    <style>
      .cls-1 {
        fill: #ffecba;
      }

      .cls-1, .cls-2, .cls-3, .cls-4, .cls-5, .cls-6, .cls-7, .cls-8 {
        fill-rule: evenodd;
      }

      .cls-2 {
        fill: #393939;
      }

      .cls-3 {
        fill: #e88f8d;
      }

      .cls-4 {
        fill: #d97475;
      }

      .cls-5 {
        fill: #daeaf2;
      }

      .cls-6 {
        fill: #bedae8;
      }

      .cls-7 {
        fill: #f1c40f;
      }

      .cls-8 {
        fill: #f39c12;
      }
    </style>
  </defs>
  <path id="Color_Fill_3" data-name="Color Fill 3" class="cls-1" d="M540.807,1005.46l3.949,40.16,36.754-16.66S573.69,1002.51,540.807,1005.46Z" transform="translate(-537.438 -915.281)"/>
  <path class="cls-2" d="M542.663,1034.24s5.786,0.65,13.135,7.59-9.541,7.19-9.541,7.19-8.728-3.88-8.827-4.71,2.091-9.96,2.091-9.96" transform="translate(-537.438 -915.281)"/>
  <path class="cls-3" d="M617.658,918.42a23.5,23.5,0,0,1,8.6,32.1l-5.5,9.526a23.5,23.5,0,1,1-40.7-23.5l5.5-9.526A23.5,23.5,0,0,1,617.658,918.42Z" transform="translate(-537.438 -915.281)"/>
  <path class="cls-4" d="M618.592,917.8l20.784,12-13.5,23.383-20.784-12Z" transform="translate(-537.438 -915.281)"/>
  <path id="Shape_17_copy" data-name="Shape 17 copy" class="cls-5" d="M585.307,927.455a139.075,139.075,0,0,1,40.7,23.5l-12.5,21.65-40.7-23.5Z" transform="translate(-537.438 -915.281)"/>
  <path class="cls-6" d="M608.092,935.991l21.65,12.5-13,22.517-21.65-12.5Z" transform="translate(-537.438 -915.281)"/>
  <path class="cls-7" d="M574.85,945.326a139.075,139.075,0,0,1,40.7,23.5L581.51,1028.96a30.011,30.011,0,0,0-8.526-7.23c-6.562-3.79-14.713.74-14.713,0.74s0.094-9.18-7.065-13.32a29.656,29.656,0,0,0-10.4-3.69Z" transform="translate(-537.438 -915.281)"/>
  <path class="cls-8" d="M602.592,946.445l23.382,13.5-44,76.215-23.382-13.5Z" transform="translate(-537.438 -915.281)"/>
</svg>
